# xmcd
#
# Track frame offsets:
#	150
#	20217
#	31695
#	62277
#	78627
#	105170
#	122997
#	136945
#	148240
#	173770
#	195922
#	214425
#	237312
#
# Disc length: 3599
#
# Revision: 6
# Processed by: cddbd v1.5.1PL0 Copyright (c) Steve Scherf et al.
# Submitted via: CDex 1.50Beta7
# Normalized: r4:DSETVAR1,TSWAP
#
DISCID=b10e0d0d
DTITLE=Various Artist - JAZZ CLUB vol.7  -  Manhattan
DYEAR=1900
DGENRE=Jazz
TTITLE0=Bud Powell - Cleopatra'S Dream
TTITLE1=Duke Ellington - In A Sentimental Mood
TTITLE2=Duke Pearson - On Green Dolphin Street
TTITLE3=Chick Corea - My One And Only Love
TTITLE4=Thad Jones - If Someone Had Told Me
TTITLE5=Thad Jones - Something To Remember You By
TTITLE6=Lou Rawls - If Iwere A Magician
TTITLE7=Duke Ellington - Stardust
TTITLE8=Lee Morgan - Since I Fell For You
TTITLE9=Art Farmer - Five Spot After Dark
TTITLE10=Miles Davis - It Never Entered My Mind
TTITLE11=Art Blakey - Once In A While
TTITLE12=Terumasa Hino - Rain Again
EXTD=
EXTT0=
EXTT1=
EXTT2=
EXTT3=
EXTT4=
EXTT5=
EXTT6=
EXTT7=
EXTT8=
EXTT9=
EXTT10=
EXTT11=
EXTT12=
PLAYORDER=
